<?xml version="1.0" encoding="utf-8"?>
<!-- Generator: Adobe Illustrator 21.0.2, SVG Export Plug-In . SVG Version: 6.00 Build 0)  -->
<svg version="1.1" id="Layer_1" xmlns="http://www.w3.org/2000/svg" xmlns:xlink="http://www.w3.org/1999/xlink" x="0px" y="0px"
	 viewBox="0 0 668 406.2" style="enable-background:new 0 0 668 406.2;" xml:space="preserve">
<style type="text/css">
	.st0{fill:none;stroke:#000000;stroke-miterlimit:10;}
	.st1{fill:#51B95B;}
	.st2{fill:#CE2B5A;}
	.st3{fill:#714E9F;}
	.st4{fill:#3B75BA;}
</style>
<path class="st0" d="M288.9,259.9c0,0,0.4,111.6-4.6,120.2"/>
<path class="st0" d="M183.9,262.9c0,0,0.4,111.6-4.6,120.2"/>
<g>
	<path class="st1" d="M107.7,193.8c0,0-0.1,2.2-0.9,2.5c0,0-1.2,1.1,0.5,1c1.6-0.1,0.7-0.5,2.4,0.2c0,0,1.6,0.4,0.7-0.8
		c-0.9-1.2-0.4-3.1-0.4-3.1L107.7,193.8z"/>
	<ellipse class="st1" cx="108.9" cy="176" rx="15.1" ry="18.4"/>
</g>
<g>
	<path class="st2" d="M87.3,235.7c0,0-0.1,2.2-0.9,2.5c0,0-1.2,1.1,0.5,1c1.6-0.1,0.7-0.5,2.4,0.2c0,0,1.6,0.4,0.7-0.8
		c-0.9-1.2-0.4-3.1-0.4-3.1L87.3,235.7z"/>
	<ellipse class="st2" cx="88.6" cy="217.9" rx="15.1" ry="18.4"/>
</g>
<g>
	<path class="st3" d="M115.7,241.7c0,0,0.1,2.2-0.6,2.6c0,0-1,1.2,0.6,0.9c1.6-0.3,0.6-0.6,2.4,0c0,0,1.6,0.2,0.6-0.9
		c-1-1.1-0.7-3-0.7-3L115.7,241.7z"/>
	
		<ellipse transform="matrix(0.9933 -0.1156 0.1156 0.9933 -25.1039 14.785)" class="st3" cx="114.9" cy="223.9" rx="15.1" ry="18.4"/>
</g>
<g>
	<path class="st4" d="M104.5,290.2c0,0,1.2,1.8,0.8,2.5c0,0-0.3,1.6,1,0.5s0.2-0.8,2-1.2c0,0,1.5-0.6,0.1-1.1
		c-1.4-0.4-2.1-2.2-2.1-2.2L104.5,290.2z"/>
	
		<ellipse transform="matrix(0.7983 -0.6023 0.6023 0.7983 -146.6499 112.5961)" class="st4" cx="94.8" cy="275.2" rx="15.1" ry="18.4"/>
</g>
<g>
	<path class="st4" d="M86.4,179c0,0-0.6,2.1-1.5,2.2c0,0-1.4,0.8,0.2,1.1c1.6,0.3,0.8-0.4,2.2,0.8c0,0,1.4,0.7,0.9-0.6
		c-0.6-1.4,0.4-3,0.4-3L86.4,179z"/>
	
		<ellipse transform="matrix(0.2411 -0.9705 0.9705 0.2411 -87.5026 212.1344)" class="st4" cx="91.9" cy="162" rx="18.4" ry="15.1"/>
</g>
<g>
	<path class="st2" d="M38.9,189.6c0,0-0.5,2.1-1.4,2.3c0,0-1.4,0.8,0.3,1.1c1.6,0.2,0.8-0.4,2.3,0.7c0,0,1.5,0.7,0.8-0.7
		c-0.6-1.3,0.2-3.1,0.2-3.1L38.9,189.6z"/>
	
		<ellipse transform="matrix(0.1943 -0.9809 0.9809 0.1943 -133.9693 181.7021)" class="st2" cx="43.6" cy="172.4" rx="18.4" ry="15.1"/>
</g>
<g>
	<path class="st1" d="M106.1,271.3c0,0-1.3,1.8-2.1,1.6c0,0-1.6,0.3-0.2,1.1c1.4,0.8,0.8-0.1,1.8,1.5c0,0,1.1,1.2,1-0.3
		c-0.1-1.5,1.4-2.7,1.4-2.7L106.1,271.3z"/>
	
		<ellipse transform="matrix(0.5511 -0.8344 0.8344 0.5511 -162.078 213.0223)" class="st1" cx="116.9" cy="257.1" rx="18.4" ry="15.1"/>
</g>
<g>
	<path class="st2" d="M638.5,269.2c0,0-0.1,2.2-0.9,2.5c0,0-1.2,1.1,0.5,1c1.6-0.1,0.7-0.5,2.4,0.2c0,0,1.6,0.4,0.7-0.8
		c-0.9-1.2-0.4-3.1-0.4-3.1L638.5,269.2z"/>
	<ellipse class="st2" cx="639.7" cy="251.4" rx="15.1" ry="18.4"/>
</g>
<g>
	<path class="st2" d="M588.9,231.3c0,0-0.1,2.2-0.9,2.5c0,0-1.2,1.1,0.5,1c1.6-0.1,0.7-0.5,2.4,0.2c0,0,1.6,0.4,0.7-0.8
		s-0.4-3.1-0.4-3.1L588.9,231.3z"/>
	<ellipse class="st2" cx="590.2" cy="213.6" rx="15.1" ry="18.4"/>
</g>
<g>
	<path class="st2" d="M286.5,253.7c0,0-0.4,6.7-2.8,7.7c0,0-3.6,3.3,1.4,3c5-0.3,2-1.6,7.3,0.7c0,0,4.8,1.1,2.1-2.5
		c-2.7-3.7-1.1-9.4-1.1-9.4L286.5,253.7z"/>
	<ellipse class="st2" cx="290.4" cy="199" rx="46.1" ry="56.6"/>
</g>
<g>
	<path class="st2" d="M32.5,281.4c0,0-1.2,1.8-2.1,1.7c0,0-1.6,0.3-0.1,1.1c1.4,0.8,0.8-0.1,1.9,1.4c0,0,1.1,1.1,1-0.3
		s1.3-2.8,1.3-2.8L32.5,281.4z"/>
	
		<ellipse transform="matrix(0.5229 -0.8524 0.8524 0.5229 -207.109 163.8848)" class="st2" cx="42.8" cy="267" rx="18.4" ry="15.1"/>
</g>
<g>
	<path class="st3" d="M618.5,231.4c0,0,0.1,2.2-0.6,2.6c0,0-1,1.2,0.6,0.9c1.6-0.3,0.6-0.6,2.4,0c0,0,1.6,0.2,0.6-0.9
		c-1-1.1-0.7-3-0.7-3L618.5,231.4z"/>
	
		<ellipse transform="matrix(0.9933 -0.1156 0.1156 0.9933 -20.5449 72.8247)" class="st3" cx="617.7" cy="213.6" rx="15.1" ry="18.4"/>
</g>
<g>
	<path class="st3" d="M583.9,184.2c0,0,0.1,2.2-0.6,2.6c0,0-1,1.2,0.6,0.9c1.6-0.3,0.6-0.6,2.4,0c0,0,1.6,0.2,0.6-0.9
		c-1-1.1-0.7-3-0.7-3L583.9,184.2z"/>
	
		<ellipse transform="matrix(0.9933 -0.1156 0.1156 0.9933 -15.3255 68.5101)" class="st3" cx="583.1" cy="166.4" rx="15.1" ry="18.4"/>
</g>
<g>
	<path class="st3" d="M410.3,209c0,0,0.7,2.1,0.1,2.7c0,0-0.7,1.5,0.8,0.7c1.5-0.7,0.4-0.7,2.3-0.7c0,0,1.6-0.3,0.3-1
		s-1.5-2.7-1.5-2.7L410.3,209z"/>
	
		<ellipse transform="matrix(0.9223 -0.3865 0.3865 0.9223 -42.8156 171.3395)" class="st3" cx="404.6" cy="192.1" rx="15.1" ry="18.4"/>
</g>
<g>
	<path class="st3" d="M417.5,312.3c0,0-0.3,2.2-1.1,2.4c0,0-1.2,1,0.4,1c1.6,0,0.7-0.5,2.4,0.4c0,0,1.5,0.5,0.7-0.8
		c-0.8-1.2-0.2-3.1-0.2-3.1L417.5,312.3z"/>
	
		<ellipse transform="matrix(6.645180e-02 -0.9978 0.9978 6.645180e-02 98.0905 694.0646)" class="st3" cx="420" cy="294.6" rx="18.4" ry="15.1"/>
</g>
<g>
	<path class="st3" d="M181.3,257.8c0,0-0.3,6.1-2.5,7c0,0-3.2,3,1.3,2.7c4.5-0.3,1.8-1.5,6.5,0.7c0,0,4.3,1,1.9-2.3
		c-2.4-3.3-1-8.5-1-8.5L181.3,257.8z"/>
	
		<ellipse transform="matrix(1.506914e-03 -1 1 1.506914e-03 -23.4886 392.6831)" class="st3" cx="184.9" cy="208.1" rx="51.4" ry="41.2"/>
</g>
<g>
	<path class="st3" d="M44.4,253.1c0,0,1.9,1.1,1.8,2c0,0,0.4,1.5,1.1,0.1c0.7-1.5-0.2-0.8,1.3-2c0,0,1.1-1.2-0.4-1
		c-1.5,0.2-2.9-1.1-2.9-1.1L44.4,253.1z"/>
	
		<ellipse transform="matrix(0.4729 -0.8811 0.8811 0.4729 -199.1744 154.2101)" class="st3" cx="29.3" cy="243.6" rx="15.1" ry="18.4"/>
</g>
<g>
	<path class="st4" d="M608.3,278.5c0,0-0.6,2.1-1.5,2.2c0,0-1.4,0.8,0.2,1.1s0.8-0.4,2.2,0.8c0,0,1.4,0.7,0.9-0.6
		c-0.6-1.4,0.4-3,0.4-3L608.3,278.5z"/>
	
		<ellipse transform="matrix(0.2411 -0.9705 0.9705 0.2411 212.0296 794.1919)" class="st4" cx="613.9" cy="261.5" rx="18.4" ry="15.1"/>
</g>
<g>
	<path class="st4" d="M350,305.4c0,0-0.6,2.1-1.5,2.2c0,0-1.4,0.8,0.2,1.1s0.8-0.4,2.2,0.8c0,0,1.4,0.7,0.9-0.6s0.4-3,0.4-3
		L350,305.4z"/>
	
		<ellipse transform="matrix(0.2411 -0.9705 0.9705 0.2411 -10.1495 563.8726)" class="st4" cx="355.5" cy="288.4" rx="18.4" ry="15.1"/>
</g>
<g>
	<path class="st4" d="M26.2,234.2c0,0-0.1,2.2-0.9,2.5c0,0-1.2,1.1,0.5,1s0.7-0.5,2.4,0.2c0,0,1.6,0.4,0.7-0.8s-0.4-3-0.4-3
		L26.2,234.2z"/>
	
		<ellipse transform="matrix(0.9999 -1.091813e-02 1.091813e-02 0.9999 -2.3606 0.3107)" class="st4" cx="27.3" cy="216.4" rx="15.1" ry="18.4"/>
</g>
<g>
	<path class="st1" d="M417.2,261.6c0,0-1.3,1.8-2.1,1.6c0,0-1.6,0.3-0.2,1.1c1.4,0.8,0.8-0.1,1.8,1.5c0,0,1.1,1.2,1-0.3
		c-0.1-1.5,1.4-2.7,1.4-2.7L417.2,261.6z"/>
	
		<ellipse transform="matrix(0.5511 -0.8344 0.8344 0.5511 -14.3539 468.3177)" class="st1" cx="428.1" cy="247.5" rx="18.4" ry="15.1"/>
</g>
<g>
	<path class="st1" d="M489.7,161.5c0,0,0,2.2-0.8,2.6c0,0-1.1,1.1,0.5,1c1.6-0.2,0.6-0.6,2.4,0.1c0,0,1.6,0.3,0.6-0.9
		c-0.9-1.1-0.5-3-0.5-3L489.7,161.5z"/>
	
		<ellipse transform="matrix(0.9986 -5.345207e-02 5.345207e-02 0.9986 -6.9794 26.3979)" class="st1" cx="490" cy="143.7" rx="15.1" ry="18.4"/>
</g>
<g>
	<path class="st1" d="M519.5,279.5c0,0,1.3,1.8,0.9,2.5c0,0-0.2,1.6,1,0.5c1.2-1.1,0.2-0.8,2-1.3c0,0,1.4-0.7,0-1.1
		c-1.4-0.4-2.2-2.1-2.2-2.1L519.5,279.5z"/>
	
		<ellipse transform="matrix(0.7673 -0.6413 0.6413 0.7673 -51.4965 388.1437)" class="st1" cx="509.1" cy="265" rx="15.1" ry="18.4"/>
</g>
<g>
	<path class="st1" d="M629.4,224.5c0,0-1.3,1.8-2.1,1.6c0,0-1.6,0.3-0.2,1.1c1.4,0.8,0.8-0.1,1.8,1.5c0,0,1.1,1.2,1-0.3
		c-0.1-1.5,1.4-2.7,1.4-2.7L629.4,224.5z"/>
	
		<ellipse transform="matrix(0.5511 -0.8344 0.8344 0.5511 111.911 628.6722)" class="st1" cx="640.3" cy="210.3" rx="18.4" ry="15.1"/>
</g>
<g>
	<path class="st1" d="M31,210.3c0,0,0.4,2.1-0.2,2.7c0,0-0.9,1.3,0.7,0.8s0.5-0.7,2.4-0.4c0,0,1.6,0,0.5-1c-1.2-0.9-1.1-2.9-1.1-2.9
		L31,210.3z"/>
	
		<ellipse transform="matrix(0.9667 -0.2561 0.2561 0.9667 -48.4346 13.514)" class="st1" cx="27.7" cy="192.7" rx="15.1" ry="18.4"/>
</g>
<g>
	<path class="st1" d="M55.1,288.7c0,0-1.3,1.8-2.1,1.6c0,0-1.6,0.3-0.2,1.1c1.4,0.8,0.8-0.1,1.8,1.5c0,0,1.1,1.2,1-0.3
		s1.4-2.7,1.4-2.7L55.1,288.7z"/>
	
		<ellipse transform="matrix(0.5511 -0.8344 0.8344 0.5511 -199.4983 178.3388)" class="st1" cx="66" cy="274.6" rx="18.4" ry="15.1"/>
</g>
<g>
	<path class="st1" d="M550.4,226c0,0-1.3,1.8-2.1,1.6c0,0-1.6,0.3-0.2,1.1c1.4,0.8,0.8-0.1,1.8,1.5c0,0,1.1,1.2,1-0.3
		c-0.1-1.5,1.4-2.7,1.4-2.7L550.4,226z"/>
	
		<ellipse transform="matrix(0.5511 -0.8344 0.8344 0.5511 75.1715 563.5063)" class="st1" cx="561.3" cy="211.9" rx="18.4" ry="15.1"/>
</g>
<g>
	<path class="st1" d="M377.9,322c0,0,0.4,2.2-0.3,2.6c0,0-0.9,1.3,0.7,0.8c1.6-0.5,0.5-0.7,2.4-0.3c0,0,1.6,0,0.5-1s-1-2.9-1-2.9
		L377.9,322z"/>
	
		<ellipse transform="matrix(0.9741 -0.2261 0.2261 0.9741 -59.102 92.7103)" class="st1" cx="375.2" cy="304.4" rx="15.1" ry="18.4"/>
</g>
<g>
	<path class="st1" d="M578.3,275.1c0,0-1.3,1.8-2.1,1.6c0,0-1.6,0.3-0.2,1.1c1.4,0.8,0.8-0.1,1.8,1.5c0,0,1.1,1.2,1-0.3
		c-0.1-1.5,1.4-2.7,1.4-2.7L578.3,275.1z"/>
	
		<ellipse transform="matrix(0.5511 -0.8344 0.8344 0.5511 46.7313 608.8002)" class="st1" cx="589.2" cy="261" rx="18.4" ry="15.1"/>
</g>
<g>
	<path class="st3" d="M68.2,179.7c0,0,0.1,2.2-0.6,2.6c0,0-1,1.2,0.6,0.9s0.6-0.6,2.4,0c0,0,1.6,0.2,0.6-0.9c-1-1.1-0.7-3-0.7-3
		L68.2,179.7z"/>
	<ellipse transform="matrix(0.9933 -0.1156 0.1156 0.9933 -18.2571 8.871)" class="st3" cx="67.4" cy="161.9" rx="15.1" ry="18.4"/>
</g>
<g>
	<path class="st2" d="M390,323.1c0,0-0.9,2-1.8,2c0,0-1.5,0.6,0.1,1.1s0.8-0.2,2.1,1.1c0,0,1.3,0.9,0.9-0.5c-0.4-1.4,0.8-3,0.8-3
		L390,323.1z"/>
	
		<ellipse transform="matrix(0.3809 -0.9246 0.9246 0.3809 -37.5796 558.1335)" class="st2" cx="398" cy="307.1" rx="18.4" ry="15.1"/>
</g>
<g>
	<path class="st2" d="M424.7,237.2c0,0-0.5,2.1-1.3,2.3c0,0-1.3,0.9,0.3,1c1.6,0.2,0.7-0.4,2.3,0.6c0,0,1.5,0.6,0.8-0.7
		c-0.7-1.3,0.2-3.1,0.2-3.1L424.7,237.2z"/>
	
		<ellipse transform="matrix(0.1729 -0.9849 0.9849 0.1729 138.2603 604.4584)" class="st2" cx="429" cy="219.9" rx="18.4" ry="15.1"/>
</g>
<g>
	<path class="st4" d="M425.4,215c0,0-0.6,2.1-1.5,2.2c0,0-1.4,0.8,0.2,1.1c1.6,0.3,0.8-0.4,2.2,0.8c0,0,1.4,0.7,0.9-0.6s0.4-3,0.4-3
		L425.4,215z"/>
	
		<ellipse transform="matrix(0.2411 -0.9705 0.9705 0.2411 134.8166 568.4579)" class="st4" cx="430.9" cy="198" rx="18.4" ry="15.1"/>
</g>
<g>
	<path class="st4" d="M428.7,289.4c0,0-0.6,2.1-1.5,2.2c0,0-1.4,0.8,0.2,1.1c1.6,0.3,0.8-0.4,2.2,0.8c0,0,1.4,0.7,0.9-0.6
		c-0.6-1.4,0.4-3,0.4-3L428.7,289.4z"/>
	
		<ellipse transform="matrix(0.2411 -0.9705 0.9705 0.2411 65.1137 628.1162)" class="st4" cx="434.2" cy="272.4" rx="18.4" ry="15.1"/>
</g>
<g>
	<path class="st2" d="M372.3,210.8c0,0-0.6,2.1-1.5,2.2c0,0-1.4,0.8,0.2,1.1s0.8-0.4,2.3,0.8c0,0,1.4,0.7,0.9-0.6s0.4-3,0.4-3
		L372.3,210.8z"/>
	
		<ellipse transform="matrix(0.2342 -0.9722 0.9722 0.2342 100.8947 515.6307)" class="st2" cx="377.7" cy="193.8" rx="18.4" ry="15.1"/>
</g>
<g>
	<path class="st2" d="M376.5,268.6c0,0-0.1,2.2-0.9,2.5c0,0-1.2,1.1,0.5,1c1.6-0.1,0.7-0.5,2.4,0.2c0,0,1.6,0.4,0.7-0.8
		s-0.4-3.1-0.4-3.1L376.5,268.6z"/>
	<ellipse class="st2" cx="377.7" cy="250.8" rx="15.1" ry="18.4"/>
</g>
<g>
	<path class="st4" d="M395.1,271.5c0,0-0.6,2.1-1.5,2.2c0,0-1.4,0.8,0.2,1.1c1.6,0.3,0.8-0.4,2.2,0.8c0,0,1.4,0.7,0.9-0.6
		c-0.6-1.4,0.4-3,0.4-3L395.1,271.5z"/>
	
		<ellipse transform="matrix(0.2411 -0.9705 0.9705 0.2411 56.9274 582.014)" class="st4" cx="400.6" cy="254.6" rx="18.4" ry="15.1"/>
</g>
<g>
	<path class="st3" d="M360.1,252.6c0,0,0.1,2.2-0.6,2.6c0,0-1,1.2,0.6,0.9c1.6-0.3,0.6-0.6,2.4,0c0,0,1.6,0.2,0.6-0.9
		c-1-1.1-0.7-3-0.7-3L360.1,252.6z"/>
	
		<ellipse transform="matrix(0.9933 -0.1156 0.1156 0.9933 -24.7224 43.1045)" class="st3" cx="359.4" cy="234.7" rx="15.1" ry="18.4"/>
</g>
<g>
	<path class="st1" d="M371.5,227.1c0,0,1.1,1.9,0.7,2.6c0,0-0.4,1.6,0.9,0.5s0.2-0.8,2.1-1.1c0,0,1.5-0.6,0.1-1.1
		c-1.4-0.5-2-2.3-2-2.3L371.5,227.1z"/>
	
		<ellipse transform="matrix(0.8248 -0.5654 0.5654 0.8248 -56.1803 242.0096)" class="st1" cx="362.5" cy="211.7" rx="15.1" ry="18.4"/>
</g>
<g>
	<path class="st3" d="M489.6,193.9c0,0-0.2,2.2-1,2.5c0,0-1.2,1,0.4,1s0.7-0.5,2.4,0.3c0,0,1.6,0.4,0.7-0.8
		c-0.8-1.2-0.2-3.1-0.2-3.1L489.6,193.9z"/>
	
		<ellipse transform="matrix(4.319031e-02 -0.9991 0.9991 4.319031e-02 294.3363 659.7795)" class="st3" cx="491.6" cy="176.2" rx="18.4" ry="15.1"/>
</g>
<g>
	<path class="st4" d="M494.8,259.2c0,0,0.6,2.1,0,2.7c0,0-0.7,1.4,0.8,0.8s0.4-0.7,2.3-0.6c0,0,1.6-0.2,0.4-1s-1.4-2.8-1.4-2.8
		L494.8,259.2z"/>
	
		<ellipse transform="matrix(0.9432 -0.3323 0.3323 0.9432 -52.5607 176.6271)" class="st4" cx="490.1" cy="242" rx="15.1" ry="18.4"/>
</g>
<g>
	<path class="st3" d="M565.9,264.3c0,0,0.1,2.2-0.6,2.6c0,0-1,1.2,0.6,0.9c1.6-0.3,0.6-0.6,2.4,0c0,0,1.6,0.2,0.6-0.9
		c-1-1.1-0.7-3-0.7-3L565.9,264.3z"/>
	
		<ellipse transform="matrix(0.9933 -0.1156 0.1156 0.9933 -24.7016 66.9599)" class="st3" cx="565.1" cy="246.5" rx="15.1" ry="18.4"/>
</g>
<g>
	<path class="st4" d="M553.8,200.2c0,0-0.6,2.1-1.5,2.2c0,0-1.4,0.8,0.2,1.1c1.6,0.3,0.8-0.4,2.2,0.8c0,0,1.4,0.7,0.9-0.6
		c-0.6-1.4,0.4-3,0.4-3L553.8,200.2z"/>
	
		<ellipse transform="matrix(0.2411 -0.9705 0.9705 0.2411 246.5518 681.9102)" class="st4" cx="559.3" cy="183.3" rx="18.4" ry="15.1"/>
</g>
<g>
	<path class="st2" d="M603.9,181.4c0,0-0.1,2.2-0.9,2.5c0,0-1.2,1.1,0.5,1c1.6-0.1,0.7-0.5,2.4,0.2c0,0,1.6,0.4,0.7-0.8
		c-0.9-1.2-0.4-3.1-0.4-3.1L603.9,181.4z"/>
	<ellipse class="st2" cx="605.2" cy="163.6" rx="15.1" ry="18.4"/>
</g>
<g>
	<path class="st4" d="M632.7,196.6c0,0,0.4,2.2-0.3,2.6c0,0-0.9,1.3,0.7,0.9c1.6-0.5,0.5-0.7,2.4-0.3c0,0,1.6,0,0.5-1
		c-1.1-1-1-2.9-1-2.9L632.7,196.6z"/>
	
		<ellipse transform="matrix(0.9763 -0.2163 0.2163 0.9763 -23.8029 140.5051)" class="st4" cx="630.1" cy="179" rx="15.1" ry="18.4"/>
</g>
<g>
	<path class="st2" d="M485.7,226c0,0-0.7,2.1-1.5,2.2c0,0-1.4,0.8,0.2,1.1c1.6,0.3,0.8-0.3,2.2,0.8c0,0,1.4,0.8,0.9-0.6
		c-0.6-1.4,0.4-3,0.4-3L485.7,226z"/>
	
		<ellipse transform="matrix(0.2518 -0.9678 0.9678 0.2518 165.2251 632.0056)" class="st2" cx="491.4" cy="209.1" rx="18.4" ry="15.1"/>
</g>
</svg>
