<?xml version="1.0" encoding="utf-8"?>
<!-- Generator: Adobe Illustrator 21.0.2, SVG Export Plug-In . SVG Version: 6.00 Build 0)  -->
<svg version="1.1" id="Layer_1" xmlns="http://www.w3.org/2000/svg" xmlns:xlink="http://www.w3.org/1999/xlink" x="0px" y="0px"
	 viewBox="0 0 124.1 232.8" style="enable-background:new 0 0 124.1 232.8;" xml:space="preserve">
<style type="text/css">
	.st0{fill:#352C2E;}
	.st1{fill:none;stroke:#000000;stroke-miterlimit:10;}
	.st2{fill:#CE2B5A;}
	.st3{fill:#51B95B;}
	.st4{fill:#95D7F4;}
	.st5{fill:#FFFFFF;stroke:#DFF0F7;stroke-miterlimit:10;}
	.st6{fill:#FFFFFF;}
	.st7{fill:#6C797F;}
	.st8{opacity:0.79;fill:#F4EB27;}
	.st9{fill:#F2690C;}
	.st10{fill:#EAEA11;}
	.st11{fill:none;stroke:#231F20;stroke-width:2;stroke-miterlimit:10;}
	.st12{fill:#3B75BA;}
	.st13{fill:#714E9F;}
</style>
<g>
	<line class="st0" x1="670.8" y1="-232.8" x2="1338.9" y2="-232.8"/>
</g>
<g>
	<g>
		<path class="st1" d="M305.6,573.1"/>
		<g>
			<path class="st2" d="M307.6,519.7c1.6,0.3,0.8-0.4,2.2,0.8c0,0,1.4,0.7,0.9-0.6"/>
		</g>
	</g>
	<g>
		<path class="st1" d="M525.4,531.1"/>
	</g>
</g>
<g>
	<path class="st1" d="M75.5,45c0,0,0.7,143-8.1,154.1"/>
	<g>
		<path class="st3" d="M72.4,96.6c0,0,0.7,3.9-0.5,4.8c0,0-1.6,2.3,1.2,1.4c2.8-0.9,0.9-1.2,4.2-0.7c0,0,2.8,0,0.9-1.8
			c-2.1-1.6-1.9-5.1-1.9-5.1L72.4,96.6z"/>
		
			<ellipse transform="matrix(0.9686 -0.2487 0.2487 0.9686 -14.261 18.6606)" class="st3" cx="66.7" cy="65.8" rx="26.6" ry="32.4"/>
	</g>
</g>
<rect x="316.1" y="390.2" class="st4" width="651" height="345"/>
<path class="st5" d="M388.6,460.7c0,0-16-33,22-29c0,0,17-31,39-10c0,0,20-8,31,0c0,0,32-12,36,21c0,0,14,19-12,30c0,0-31,13-37,0
	c0,0-17,19.6-36,5.8C431.6,478.5,383.6,498.7,388.6,460.7z"/>
<path class="st5" d="M766.7,511.6c0,0-1.8-42.3,39.8-25.3c0,0,18.4-27.9,41-4.1c0,0,23.9-15.1,34.1,3.4c0,0,26.6-8.2,28,10.2
	c0,0,19.8,21.8-8.2,28.7c0,0-13.7,15.7-28.7,3.4c0,0-16,18.3-31.2,4.7c0,0-23.4,12.4-28.2-4.7c0,0-20.5,17.1-30.7,0
	C782.6,528,762.2,531.1,766.7,511.6z"/>
<path class="st5" d="M761.8,436.3c0,0-1.2-28.7,27-17.1c0,0,12.5-18.9,27.7-2.7c0,0,16.2-10.2,23.1,2.3c0,0,18-5.5,19,6.9
	c0,0,13.4,14.8-5.5,19.4c0,0-9.2,10.6-19.4,2.3c0,0-10.8,12.4-21.1,3.2c0,0-15.9,8.4-19.1-3.2c0,0-13.9,11.6-20.8,0
	C772.5,447.4,758.7,449.5,761.8,436.3z"/>
<path class="st5" d="M582.1,463c0,0-1.5-33.8,31.8-20.2c0,0,14.7-22.3,32.7-3.2c0,0,19.1-12,27.3,2.7c0,0,21.3-6.5,22.3,8.2
	c0,0,15.8,17.4-6.5,22.9c0,0-10.9,12.5-22.9,2.7c0,0-12.7,14.6-24.9,3.8c0,0-18.7,9.9-22.5-3.8c0,0-16.3,13.6-24.5,0
	C594.8,476.1,578.5,478.6,582.1,463z"/>
<path class="st6" d="M735.3,677.9C735.3,677.9,735.3,677.9,735.3,677.9c0.4-0.1,1-0.1,1.4-0.2C736.3,677.7,735.9,677.8,735.3,677.9z
	"/>
<path class="st6" d="M737,677.6c-0.1,0-0.2,0-0.4,0.1C736.8,677.7,736.9,677.7,737,677.6z"/>
<path class="st6" d="M737,677.6C737.1,677.6,737.1,677.6,737,677.6L737,677.6z"/>
<path class="st6" d="M736.6,677.7C737.1,677.6,737.3,677.6,736.6,677.7L736.6,677.7z"/>
<path class="st6" d="M476.6,532c0.1,0,0.3,0,0.4-0.1C476.9,532,476.8,532,476.6,532z"/>
<path class="st6" d="M477.3,531.9C477.4,531.9,477.4,531.9,477.3,531.9L477.3,531.9z"/>
<path class="st7" d="M329.5,760.6c0,0,35.2-46.3,36.6-52c1.3-5.7,22.3-8,22.3-8s10-4.3,12-19.7c2-15.3,9-15.3,9-15.3
	s9.3-5.7,12-21.7c2.7-16,29.7-83,29.7-83s9.4-12.8,14.7-16.4c0.8-0.5,1.4-0.9,2-0.9c4.3-0.7-0.5,0.1-0.5,0.1s17.2-5.8,29.2,8.6
	l12.7,28c0,0,14,30,8.3,42.3c0,0,2.7,11.7,9.7,16.7c0,0,15,16.7,19.3,30c0,0,23.7,23.3,20,38c0,0-1.3,15.7,29.3,45.5l31.8,39.5
	l-14.1-4.3l-26.3,15c0,0-33.7,20-95.7,5c0,0-20.7-3.7-28-1.7c0,0-16.3-16-37.7-8.7c0,0-32.3-5-44.7-7.3
	C381.1,790.3,336.6,756.6,329.5,760.6z"/>
<path class="st7" d="M467.7,747.5c0,0,25.6-44.5,26.6-49.9c1-5.4,16.2-7.7,16.2-7.7s7.3-4.2,8.7-18.9s6.5-14.7,6.5-14.7
	s6.8-5.4,8.7-20.8c1.9-15.4,21.5-79.7,21.5-79.7s6.9-12.3,10.7-15.7c0.5-0.5,1-0.8,1.4-0.9c3.1-0.6-0.4,0.1-0.4,0.1
	s12.5-5.5,21.2,8.2l9.2,26.9c0,0,10.2,28.8,6.1,40.6c0,0,1.9,11.2,7,16c0,0,10.9,16,14,28.8c0,0,17.2,22.4,14.5,36.5
	c0,0-1,15,21.3,43.7l23.1,37.9l-10.2-4.2l-19.1,14.4c0,0-24.4,19.2-69.5,4.8c0,0-15-3.5-20.3-1.6c0,0-11.9-15.4-27.3-8.3
	c0,0-23.5-4.8-32.4-7C505.1,776,472.8,743.6,467.7,747.5z"/>
<path class="st6" d="M606.4,597.7c-1.8-3.1-3.3-6.4-4.8-9.7c-1-2.1-1.6-4.1-1.8-6.3c-2.8-2.5-3.9-6.7-3.9-6.7
	c2.9-5.6-4.3-19.2-4.3-19.2l-6.5-12.7c-6.2-6.5-15-3.9-15-3.9s0.1,0,0.3,0c-0.3,0-0.6,0.2-1,0.4c-2.7,1.7-7.6,7.4-7.6,7.4
	s-13.7,30-15.2,37.5c2.7,0,4.5,3.8,1.7,5.1c-2.3,1-3.1,4.6-4.6,6.5c-2.3,3-4,6.3-6.1,9.4c-0.5,0.8-1,1.5-1.6,2.2
	c0.3,0.7,0.3,1.6-0.3,2.4c-1,1.5-1.3,3.1-1.4,4.7c1.8-2.6,3.3-5.2,4.1-6.4c1.4-2.3,3-4.7,4.5-7c1.6-2.4,3.5-3.7,5.6-5.5
	c3.6-3.1,3.4-7.7,8.8-9.1c2.2-0.6,3.8,1,4.1,2.9c0.6,4.1-1.3,8.2-3,11.9c-1.9,4.1-3.2,8.2-4.6,12.5c-1.1,3.2-3.6,9.4-0.1,12.1
	c2,1.5,7.3,2.1,9.1,0.1c2-2.2,2.1-6.2,3.1-8.9c1.8-4.7,3.4-9.6,5.8-14.1c3.1-5.9,8.8-13,15.3-15.9c2-0.8,5.1,0.1,4.9,2.6
	c-1,8.6-2.1,17-2.1,25.7c0,2.9,0.1,5.9,0.4,8.8c0.2,1.7,0.3,6.1,2,7.2c0.5,0.3,0.1,0.4,0.9-0.3c1-0.8,1.6-2.6,2.1-3.8
	c1.1-3,1.7-6.1,2.6-9.1c2.1-6.5,5.4-12.9,12.2-15.9C608.7,601.1,607.5,599.5,606.4,597.7z"/>
<path class="st6" d="M539.8,636.3c-3.3-5.5-5.9-11.4-8.6-17.2c-1.7-3.7-2.9-7.4-3.2-11.2c-4.9-4.5-6.9-11.9-6.9-11.9
	c5.2-10-7.6-34.2-7.6-34.2L502,539.1c-11-11.6-26.8-6.9-26.8-6.9s0.2,0,0.5-0.1c-0.5,0.1-1.1,0.3-1.8,0.8
	c-4.8,2.9-13.5,13.2-13.5,13.2s-24.4,53.4-27.1,66.8c4.8-0.1,8.1,6.8,2.9,9.1c-4.1,1.8-5.6,8.1-8.2,11.6c-4,5.3-7.1,11.2-10.8,16.7
	c-0.9,1.3-1.8,2.6-2.8,4c0.6,1.2,0.6,2.8-0.4,4.3c-1.8,2.7-2.4,5.5-2.6,8.4c3.3-4.6,5.9-9.3,7.2-11.4c2.6-4.2,5.3-8.3,8-12.4
	c2.8-4.2,6.2-6.6,10-9.8c6.4-5.5,6.1-13.7,15.7-16.2c4-1,6.8,1.8,7.3,5.1c1,7.3-2.3,14.6-5.4,21.2c-3.3,7.3-5.8,14.6-8.3,22.2
	c-1.9,5.7-6.4,16.8-0.2,21.5c3.6,2.7,13,3.7,16.2,0.1c3.5-4,3.8-11,5.6-15.8c3.2-8.3,6.1-17.2,10.3-25.1
	c5.5-10.5,15.6-23.2,27.3-28.2c3.5-1.5,9.1,0.2,8.6,4.6c-1.7,15.3-3.7,30.3-3.7,45.7c0,5.2,0.1,10.4,0.7,15.6
	c0.3,3,0.5,10.8,3.5,12.7c1,0.6,0.1,0.7,1.6-0.5c1.9-1.5,2.9-4.6,3.7-6.7c1.9-5.3,3-10.8,4.7-16.1c3.7-11.6,9.6-23,21.7-28.2
	C543.8,642.4,541.7,639.4,539.8,636.3z"/>
<path class="st7" d="M546,801.3c0,0,30.4-52.9,31.6-59.3c1.2-6.5,19.3-9.1,19.3-9.1s8.6-4.9,10.4-22.4c1.7-17.5,7.8-17.5,7.8-17.5
	s8.1-6.5,10.4-24.7s25.6-94.7,25.6-94.7s8.1-14.6,12.7-18.7c0.6-0.6,1.2-1,1.7-1.1c3.7-0.8-0.5,0.1-0.5,0.1s14.8-6.6,25.2,9.8
	l10.9,31.9c0,0,12.1,34.2,7.2,48.3c0,0,2.3,13.3,8.3,19c0,0,12.9,19,16.7,34.2c0,0,20.4,26.6,17.3,43.4c0,0-1.2,17.9,25.3,51.9
	l27.4,45.1l-12.2-4.9l-22.7,17.1c0,0-29.1,22.8-82.6,5.7c0,0-17.8-4.2-24.2-1.9c0,0-14.1-18.3-32.5-9.9c0,0-27.9-5.7-38.5-8.4
	C590.5,835.1,552.2,796.7,546,801.3z"/>
<path class="st6" d="M711,623.3c-2.2-3.7-4-7.6-5.7-11.5c-1.1-2.5-1.9-4.9-2.1-7.5c-3.3-3-4.6-8-4.6-8c3.5-6.7-5.1-22.8-5.1-22.8
	l-7.7-15.1c-7.3-7.7-17.9-4.6-17.9-4.6s0.1,0,0.3,0c-0.3,0-0.7,0.2-1.2,0.5c-3.2,2-9,8.8-9,8.8s-16.3,35.7-18.1,44.6
	c3.2,0,5.4,4.6,2,6.1c-2.8,1.2-3.7,5.4-5.5,7.8c-2.7,3.6-4.7,7.5-7.2,11.2c-0.6,0.9-1.2,1.8-1.9,2.6c0.4,0.8,0.4,1.8-0.3,2.9
	c-1.2,1.8-1.6,3.7-1.7,5.6c2.2-3.1,4-6.2,4.8-7.6c1.7-2.8,3.5-5.6,5.3-8.3c1.9-2.8,4.1-4.4,6.7-6.6c4.3-3.7,4.1-9.1,10.5-10.8
	c2.7-0.7,4.5,1.2,4.9,3.4c0.7,4.9-1.6,9.7-3.6,14.2c-2.2,4.9-3.9,9.7-5.5,14.8c-1.2,3.8-4.3,11.2-0.1,14.4c2.4,1.8,8.7,2.4,10.8,0.1
	c2.4-2.7,2.5-7.4,3.7-10.5c2.1-5.6,4.1-11.5,6.9-16.8c3.7-7,10.5-15.5,18.2-18.9c2.3-1,6.1,0.1,5.8,3.1c-1.2,10.2-2.5,20.2-2.5,30.6
	c0,3.5,0.1,7,0.5,10.4c0.2,2,0.4,7.2,2.3,8.5c0.6,0.4,0.1,0.4,1.1-0.4c1.2-1,1.9-3.1,2.5-4.5c1.3-3.5,2-7.2,3.1-10.8
	c2.5-7.8,6.4-15.3,14.5-18.9C713.6,627.3,712.2,625.4,711,623.3z"/>
<path class="st7" d="M670.2,709.1c0,0,19.6-34,20.3-38.2c0.7-4.2,12.4-5.9,12.4-5.9s5.6-3.2,6.7-14.4s5-11.3,5-11.3
	s5.2-4.2,6.7-15.9s16.5-60.9,16.5-60.9s5.2-9.4,8.2-12c0.4-0.4,0.8-0.6,1.1-0.7c2.4-0.5-0.3,0.1-0.3,0.1s9.6-4.2,16.2,6.3l7,20.6
	c0,0,7.8,22,4.6,31.1c0,0,1.5,8.6,5.4,12.2c0,0,8.3,12.2,10.7,22c0,0,13.1,17.1,11.1,27.9c0,0-0.7,11.5,16.3,33.4l17.6,29l-7.8-3.2
	l-14.6,11c0,0-18.7,14.7-53.1,3.7c0,0-11.5-2.7-15.5-1.2c0,0-9.1-11.7-20.9-6.4c0,0-18-3.7-24.8-5.4
	C698.8,730.9,674.1,706.2,670.2,709.1z"/>
<path class="st6" d="M776.3,594.6c-1.4-2.4-2.5-4.9-3.7-7.4c-0.7-1.6-1.2-3.2-1.4-4.8c-2.1-1.9-3-5.1-3-5.1
	c2.2-4.3-3.3-14.7-3.3-14.7l-5-9.7c-4.7-5-11.5-3-11.5-3s0.1,0,0.2,0c-0.2,0-0.5,0.1-0.8,0.3c-2.1,1.3-5.8,5.7-5.8,5.7
	s-10.5,22.9-11.7,28.7c2.1,0,3.5,2.9,1.3,3.9c-1.8,0.8-2.4,3.5-3.5,5c-1.7,2.3-3,4.8-4.6,7.2c-0.4,0.6-0.8,1.1-1.2,1.7
	c0.2,0.5,0.2,1.2-0.2,1.9c-0.8,1.2-1,2.4-1.1,3.6c1.4-2,2.6-4,3.1-4.9c1.1-1.8,2.3-3.6,3.4-5.3c1.2-1.8,2.7-2.8,4.3-4.2
	c2.7-2.4,2.6-5.9,6.7-6.9c1.7-0.4,2.9,0.8,3.1,2.2c0.4,3.2-1,6.3-2.3,9.1c-1.4,3.1-2.5,6.3-3.6,9.5c-0.8,2.4-2.7,7.2-0.1,9.2
	c1.6,1.2,5.6,1.6,6.9,0.1c1.5-1.7,1.6-4.7,2.4-6.8c1.4-3.6,2.6-7.4,4.4-10.8c2.4-4.5,6.7-10,11.7-12.1c1.5-0.6,3.9,0.1,3.7,2
	c-0.7,6.6-1.6,13-1.6,19.7c0,2.2,0.1,4.5,0.3,6.7c0.1,1.3,0.2,4.7,1.5,5.5c0.4,0.3,0,0.3,0.7-0.2c0.8-0.6,1.3-2,1.6-2.9
	c0.8-2.3,1.3-4.6,2-6.9c1.6-5,4.1-9.9,9.3-12.1C778,597.2,777.1,595.9,776.3,594.6z"/>
<path class="st5" d="M771.4,625.8c0,0-16-33,22-29c0,0,17-31,39-10c0,0,20-8,31,0c0,0,32-12,36,21c0,0,14,19-12,30c0,0-31,13-37,0
	c0,0-17,19.6-36,5.8C814.4,643.6,766.4,663.8,771.4,625.8z"/>
<path class="st5" d="M363.7,547c0,0-1.3-29.4,27.6-17.5c0,0,12.8-19.4,28.4-2.8c0,0,16.6-10.5,23.7,2.3c0,0,18.5-5.7,19.4,7.1
	c0,0,13.7,15.2-5.7,19.9c0,0-9.5,10.9-19.9,2.4c0,0-11.1,12.7-21.7,3.3c0,0-16.3,8.6-19.6-3.3c0,0-14.2,11.8-21.3,0
	C374.8,558.4,360.6,560.5,363.7,547z"/>
<path class="st5" d="M589.9,541.2c0,0-12.9-26.6,17.7-23.4c0,0,13.7-25,31.4-8.1c0,0,16.1-6.4,25,0c0,0,25.8-9.7,29,16.9
	c0,0,11.3,15.3-9.7,24.2c0,0-25,10.5-29.8,0c0,0-13.7,15.7-29,4.7C624.5,555.6,585.8,571.8,589.9,541.2z"/>
<circle class="st8" cx="903.2" cy="437.7" r="23.7"/>
<polyline class="st0" points="1935.3,204.1 1935.3,587.2 1267.2,587.2 1267.2,204.1 "/>
<circle class="st6" cx="1352.9" cy="303.6" r="1.6"/>
<circle class="st6" cx="1490.6" cy="471.3" r="1.6"/>
<circle class="st6" cx="1587.8" cy="354.4" r="1.6"/>
<circle class="st6" cx="1657.4" cy="412.9" r="1.6"/>
<circle class="st6" cx="1408.9" cy="436.5" r="1.6"/>
<circle class="st6" cx="1493.8" cy="337.5" r="1.6"/>
<circle class="st6" cx="1401.9" cy="483.8" r="1.6"/>
<circle class="st6" cx="1530.2" cy="379.9" r="1.6"/>
<circle class="st6" cx="1531.8" cy="275.7" r="1.6"/>
<circle class="st6" cx="1410.5" cy="272.5" r="1.6"/>
<circle class="st6" cx="1351.3" cy="362.4" r="1.6"/>
<circle class="st6" cx="1331.1" cy="439.7" r="1.6"/>
<circle class="st6" cx="1448.8" cy="300.4" r="1.6"/>
<circle class="st6" cx="1571.8" cy="306.9" r="1.6"/>
<circle class="st6" cx="1332.7" cy="270.9" r="1.6"/>
<circle class="st6" cx="1408.9" cy="376.6" r="1.6"/>
<circle class="st6" cx="1570.2" cy="427.8" r="1.6"/>
<circle class="st6" cx="1326.3" cy="332.7" r="1.6"/>
<circle class="st6" cx="1319.8" cy="387.7" r="1.6"/>
<circle class="st6" cx="1541.8" cy="345.5" r="1.6"/>
<circle class="st6" cx="1458.3" cy="343.9" r="1.6"/>
<circle class="st6" cx="1458.3" cy="409.7" r="1.6"/>
<circle class="st6" cx="1387.3" cy="390.9" r="1.6"/>
<circle class="st6" cx="1334.3" cy="495.6" r="1.6"/>
<circle class="st6" cx="1483.8" cy="274.1" r="1.6"/>
<circle class="st6" cx="1518.4" cy="414.5" r="1.6"/>
<circle class="st6" cx="1401.9" cy="329.4" r="1.6"/>
<circle class="st6" cx="1732.2" cy="266.9" r="1.6"/>
<circle class="st6" cx="1706.3" cy="403.4" r="1.6"/>
<circle class="st6" cx="1802.7" cy="445.9" r="1.6"/>
<circle class="st6" cx="1877" cy="429.4" r="1.6"/>
<circle class="st6" cx="1518.4" cy="445.9" r="1.6"/>
<circle class="st6" cx="1823.3" cy="314.4" r="1.6"/>
<circle class="st6" cx="1670.8" cy="332.7" r="1.6"/>
<circle class="st6" cx="1725.3" cy="340.7" r="1.6"/>
<circle class="st6" cx="1764.8" cy="298.8" r="1.6"/>
<circle class="st6" cx="1654.4" cy="275.7" r="1.6"/>
<circle class="st6" cx="1670.8" cy="375" r="1.6"/>
<circle class="st6" cx="1788.3" cy="342.3" r="1.6"/>
<circle class="st6" cx="1627.7" cy="326.2" r="1.6"/>
<circle class="st6" cx="1758.7" cy="389.3" r="1.6"/>
<circle class="st6" cx="1704.7" cy="450.8" r="1.6"/>
<circle class="st6" cx="1707.9" cy="292.9" r="1.6"/>
<circle class="st6" cx="1802.7" cy="265.3" r="1.6"/>
<circle class="st6" cx="1602.9" cy="266.9" r="1.6"/>
<circle class="st6" cx="1763.2" cy="426.2" r="1.6"/>
<circle class="st6" cx="1627.7" cy="438.1" r="1.6"/>
<circle class="st6" cx="1562.3" cy="250.9" r="1.6"/>
<circle class="st6" cx="1515.2" cy="306.9" r="1.6"/>
<circle class="st6" cx="1456.7" cy="259.8" r="1.6"/>
<circle class="st6" cx="1469.5" cy="378.3" r="1.6"/>
<circle class="st6" cx="1580.3" cy="469.7" r="1.6"/>
<circle class="st6" cx="1518.4" cy="552.5" r="1.6"/>
<circle class="st6" cx="1573.4" cy="389.3" r="1.6"/>
<circle class="st6" cx="1865.7" cy="278.9" r="1.6"/>
<circle class="st6" cx="1804.3" cy="394.1" r="1.6"/>
<circle class="st6" cx="1752.2" cy="549.3" r="1.6"/>
<circle class="st6" cx="1456.7" cy="512.4" r="1.6"/>
<circle class="st6" cx="1549.3" cy="523.5" r="1.6"/>
<circle class="st6" cx="1820.1" cy="495.6" r="1.6"/>
<circle class="st6" cx="1726.9" cy="521.9" r="1.6"/>
<circle class="st6" cx="1834.9" cy="539.4" r="1.6"/>
<circle class="st6" cx="1867.3" cy="491.8" r="1.6"/>
<circle class="st6" cx="1655.8" cy="541" r="1.6"/>
<circle class="st6" cx="1478.8" cy="528.8" r="1.6"/>
<circle class="st6" cx="1591" cy="530.4" r="1.6"/>
<circle class="st6" cx="1763.2" cy="466.4" r="1.6"/>
<circle class="st6" cx="1694.9" cy="502.9" r="1.6"/>
<circle class="st6" cx="1459.9" cy="457" r="1.6"/>
<circle class="st6" cx="1533.4" cy="485.4" r="1.6"/>
<circle class="st6" cx="1637.1" cy="482.2" r="1.6"/>
<circle class="st6" cx="1868.9" cy="364" r="1.6"/>
<circle class="st6" cx="1412.1" cy="537.8" r="1.6"/>
<circle class="st6" cx="1764.8" cy="492.4" r="1.6"/>
<circle class="st6" cx="1609.9" cy="386" r="1.6"/>
<circle class="st6" cx="1609.9" cy="425.6" r="1.6"/>
<circle class="st6" cx="1609.9" cy="425.6" r="1.6"/>
<circle class="st6" cx="1354.5" cy="544.4" r="1.6"/>
<circle class="st6" cx="1369.3" cy="447.5" r="1.6"/>
<circle class="st6" cx="1455.1" cy="546" r="1.6"/>
<circle class="st6" cx="1609.9" cy="487" r="1.6"/>
<g>
	<rect x="-650.3" y="277.3" class="st4" width="651" height="345"/>
	<path class="st5" d="M-498.8,359c0,0-17.3-42.1,36.6-30.4c0,0,22.1-33.9,47-5.5c0,0,25.6-18,31.8,4.1c0,0,32.5,11.1,18.7,25.6
		c0,0,3.5,30.4-22.8,27.7c0,0-11.1,21.4-37.3,6.2c0,0-10.4,15.7-36.6,5.5c0,0-26.3,6.3-22.1-13.1
		C-483.6,379.1-517.5,381.8-498.8,359z"/>
	<path class="st5" d="M-255.5,455.3c0,0-46.8-26.6,4.3-39.9c0,0,7.9-27.7,33.8-7.6c0,0,18-23.8,33.8,2.2c0,0,26.6,2.3,17.3,16.6
		c0,0,17.3,25.1-5,23c0,0-12.2,18.7-24.5,5.8c0,0-12.2,13.5-28.1,4.6C-223.8,459.9-250.5,477.6-255.5,455.3z"/>
	<path class="st5" d="M-323.4,333.8c0,0-3.1-13.7,11.2-10.9c0,0,5.1-12,14-4c0,0,12.5-10.6,22-0.6c0,0,9.2-10,19.5,2.9
		c0,0,14-7.2,18.9,2.7c0,0,15.4-5.6,17.2,9.9c0,0,19.5,8,8.9,14.9c0,0-0.9,13.2-12.9,7.2c0,0-6,7.1-14,1.6c0,0-12.1,11-21.1-1
		c0,0-11.1,9.4-16.5-0.3c0,0-7.6,10-13.4-0.3c0,0-10.9,4.6-13.7-2.6c0,0-7.7,6.3-14.3-0.3c0,0-11.7,3.8-11.4-6.6
		C-329.1,346.4-339.7,335.2-323.4,333.8z"/>
	<path class="st5" d="M-182.3,360c0,0-19.5-49.8,41.2-35.9c0,0,24.9-40.1,52.9-6.5c0,0,28.8-21.3,35.8,4.9c0,0,36.6,13.1,21,30.3
		c0,0,3.9,36-25.7,32.7c0,0-12.4,25.4-42,7.4c0,0-11.7,18.6-41.2,6.5c0,0-29.6,7.5-24.9-15.5C-165.2,383.8-203.3,387-182.3,360z"/>
	<path class="st5" d="M-578.5,431.6c0,0-10-25.6,25.6-21.4c0,0,12.8-32.3,39.9-0.5c0,0,22.8-9.5,28.5,10.5c0,0,15.7,21.4,0,28.5
		c0,0-24.2,28.5-28.5,0c0,0-31.3,24.2-28.5-4.3C-541.5,444.4-588.5,461.5-578.5,431.6z"/>
	<path class="st5" d="M-410.9,452.8c0,0-9.9-25.6,25.6-21.3c0,0,12.8-32.2,39.8-0.5c0,0,22.7-9.5,28.4,10.4c0,0,15.6,21.3,0,28.4
		c0,0-24.1,28.4-28.4,0c0,0-31.3,24.1-28.4-4.3C-374,465.6-420.9,482.7-410.9,452.8z"/>
	<path class="st5" d="M-219.7,551c0,0-4.8-20.8,16.9-16.5c0,0,7.8-18.2,21.3-6.1c0,0,18.9-16.1,33.3-0.9c0,0,14-15.2,29.6,4.3
		c0,0,21.3-10.9,28.7,4.1c0,0,23.4-8.5,26,15c0,0,29.5,12.2,13.5,22.6c0,0-1.3,20-19.5,10.9c0,0-9.1,10.8-21.3,2.4
		c0,0-18.3,16.7-32-1.5c0,0-16.8,14.3-25-0.4c0,0-11.6,15.2-20.3-0.4c0,0-16.5,6.9-20.9-3.9c0,0-11.7,9.6-21.7-0.4
		c0,0-17.8,5.7-17.4-9.9C-228.4,570.1-244.4,553.1-219.7,551z"/>
	<circle class="st9" cx="-324.8" cy="652.1" r="134.8"/>
	<circle class="st10" cx="-323.9" cy="652.1" r="102.9"/>
	<path class="st5" d="M-145.9,479.4c0,0-14.1-34.4,29.9-24.8c0,0,18.1-27.7,38.4-4.5c0,0,20.9-14.7,26,3.4c0,0,26.5,9,15.2,20.9
		c0,0,2.8,24.8-18.6,22.6c0,0-9,17.5-30.5,5.1c0,0-8.5,12.9-29.9,4.5c0,0-21.5,5.1-18.1-10.7C-133.5,495.8-161.2,498-145.9,479.4z"
		/>
	<path class="st5" d="M-586.5,543.5c0,0-16.5-42.4,35.1-30.6c0,0,21.2-34.1,45-5.6c0,0,24.5-18.1,30.4,4.2c0,0,31.1,11.1,17.9,25.7
		c0,0,3.3,30.6-21.8,27.8c0,0-10.6,21.6-35.7,6.3c0,0-9.9,15.8-35.1,5.5c0,0-25.1,6.3-21.2-13.1C-572,563.7-604.4,566.4-586.5,543.5
		z"/>
	<path class="st11" d="M-542.6,356.2c0,0,23.2-10.7,41.6,1.4c0,0,4.2-21.7,23.5-24.5"/>
	<path class="st5" d="M-599.6,340.1c0,0-7-18,18-15c0,0,9-22.7,28-0.3c0,0,16-6.7,20,7.3c0,0,11,15,0,20c0,0-17,20-20,0
		c0,0-22,17-20-3C-573.6,349.1-606.6,361.1-599.6,340.1z"/>
	<path class="st11" d="M-280.2,475.5c0,0,15.8-7.3,28.3,0.9c0,0,2.9-14.8,16-16.7"/>
	<path class="st11" d="M-235.9,364.6c0,0,23.2-10.7,41.6,1.4c0,0,4.2-21.7,23.5-24.5"/>
	<path class="st11" d="M-373.8,419.1c0,0,12.3-5.7,22.1,0.7c0,0,2.3-11.5,12.5-13"/>
</g>
<text transform="matrix(1 0 0 1 632.2769 979.4971)" class="st2" style="font-family:'Raleway-Regular'; font-size:162.8854px; letter-spacing:6;">G</text>
<text transform="matrix(1 0 0 1 757.0768 979.4971)" class="st3" style="font-family:'Raleway-Regular'; font-size:162.8854px; letter-spacing:6;">o</text>
<text transform="matrix(1 0 0 1 862.0768 979.4971)" class="st13" style="font-family:'Raleway-Regular'; font-size:162.8854px; letter-spacing:6;">o</text>
<text transform="matrix(1 0 0 1 967.1768 979.4971)" class="st12" style="font-family:'Raleway-Regular'; font-size:162.8854px; letter-spacing:6;">g</text>
<text transform="matrix(1 0 0 1 1075.9768 979.4971)" class="st2" style="font-family:'Raleway-Regular'; font-size:162.8854px; letter-spacing:6;">l</text>
<text transform="matrix(1 0 0 1 1128.3768 979.4971)" class="st3" style="font-family:'Raleway-Regular'; font-size:162.8854px; letter-spacing:6;">e</text>
<g>
	<path class="st1" d="M923.7,801.4c0,0,0.4,81.2-4.6,87.5"/>
	<g>
		<path class="st12" d="M921.7,801.4c0,0,0.2,3.8-1.1,4.5c0,0-1.8,2.1,1,1.6s1-1,4.1-0.1c0,0,2.8,0.3,1-1.6
			c-1.8-1.9-1.2-5.2-1.2-5.2L921.7,801.4z"/>
		
			<ellipse transform="matrix(0.9933 -0.1156 0.1156 0.9933 -82.9077 111.5676)" class="st12" cx="920.4" cy="770.6" rx="26" ry="31.8"/>
	</g>
</g>
<path class="st1" d="M906.6,922.5c0,0,0.4,81.2-4.6,87.5"/>
<path class="st2" d="M907.1,956.8c-0.6-1.4,0.4-3,0.4-3l-2.2-0.5c0,0-0.6,2.1-1.5,2.2c0,0-1.4,0.8,0.2,1.1"/>
<ellipse transform="matrix(0.2411 -0.9705 0.9705 0.2411 -217.5624 1594.5829)" class="st2" cx="910.8" cy="936.4" rx="18.4" ry="15.1"/>
<g>
	<path class="st1" d="M862.7,867.2c0,0,0.4,81.2-4.6,87.5"/>
	<g>
		<path class="st12" d="M861.8,895c0,0-0.6,2.1-1.5,2.2c0,0-1.4,0.8,0.2,1.1c1.6,0.3,0.8-0.4,2.2,0.8c0,0,1.4,0.7,0.9-0.6
			c-0.6-1.4,0.4-3,0.4-3L861.8,895z"/>
		
			<ellipse transform="matrix(0.2411 -0.9705 0.9705 0.2411 -193.8317 1507.9911)" class="st12" cx="867.3" cy="877.9" rx="18.4" ry="15.1"/>
	</g>
</g>
<g>
	<path class="st1" d="M973.6,856.5c0,0,0.4,81.2-4.6,87.5"/>
	<g>
		<path class="st3" d="M972.3,880.5c0,0-1,3.6-2.4,3.8c0,0-2.2,1.4,0.3,1.8c2.6,0.4,1.2-0.6,3.6,1.3c0,0,2.3,1.2,1.4-1.1
			c-0.9-2.3,0.7-5.2,0.7-5.2L972.3,880.5z"/>
		
			<ellipse transform="matrix(0.2324 -0.9726 0.9726 0.2324 -74.9064 1608.158)" class="st3" cx="981.4" cy="851.5" rx="31.3" ry="23.9"/>
	</g>
</g>
<g>
	<path class="st1" d="M823.1,857.7c0,0,0.4,81.2-4.6,87.5"/>
	<g>
		<path class="st2" d="M821.6,857c0,0-0.2,2.6-1.2,3c0,0-1.6,1.3,0.6,1.2c2.2-0.1,0.9-0.6,3.2,0.3c0,0,2.1,0.4,0.9-1
			c-1.2-1.4-0.5-3.6-0.5-3.6L821.6,857z"/>
		<ellipse class="st2" cx="823.3" cy="835.8" rx="20" ry="21.9"/>
	</g>
</g>
<g>
	<path class="st1" d="M1036,763.8c0,0,0.4,81.2-4.6,87.5"/>
	<g>
		<path class="st2" d="M1035,796.9c0,0-0.1,2.2-0.9,2.5c0,0-1.2,1.1,0.5,1c1.6-0.1,0.7-0.5,2.4,0.2c0,0,1.6,0.4,0.7-0.8
			c-0.9-1.2-0.4-3.1-0.4-3.1L1035,796.9z"/>
		<ellipse class="st2" cx="1036.3" cy="779.1" rx="15.1" ry="18.4"/>
	</g>
</g>
<path class="st1" d="M1126.4,880.5c0,0,0.4,81.2-4.6,87.5"/>
<g>
	<path class="st13" d="M1125,914.6c0,0,0.1,2.2-0.6,2.6c0,0-1,1.2,0.6,0.9c1.6-0.3,0.6-0.6,2.4,0c0,0,1.6,0.2,0.6-0.9s-0.7-3-0.7-3
		L1125,914.6z"/>
	
		<ellipse transform="matrix(0.9933 -0.1156 0.1156 0.9933 -96.1294 135.9846)" class="st13" cx="1124.3" cy="896.8" rx="15.1" ry="18.4"/>
</g>
<g>
	<path class="st1" d="M1147.6,815.5c0,0,0.4,81.2-4.6,87.5"/>
	<g>
		<path class="st12" d="M1147.1,850c0,0-1,3.3-2.4,3.5c0,0-2.2,1.2,0.3,1.7s1.2-0.6,3.6,1.3c0,0,2.3,1.2,1.4-1
			c-0.9-2.2,0.6-4.8,0.6-4.8L1147.1,850z"/>
		
			<ellipse transform="matrix(0.2411 -0.9705 0.9705 0.2411 78.3131 1746.3779)" class="st12" cx="1155.8" cy="823.1" rx="29.2" ry="23.9"/>
	</g>
</g>
<image style="overflow:visible;" width="958" height="862" xlink:href="../../../../Pictures/Web 1/web 2/mountain.png"  transform="matrix(0.3111 0 0 0.3111 222.3379 673.485)">
</image>
</svg>
