<?xml version="1.0" encoding="utf-8"?>
<!-- Generator: Adobe Illustrator 21.0.2, SVG Export Plug-In . SVG Version: 6.00 Build 0)  -->
<svg version="1.1" id="Layer_1" xmlns="http://www.w3.org/2000/svg" xmlns:xlink="http://www.w3.org/1999/xlink" x="0px" y="0px"
	 viewBox="0 0 610 324" style="enable-background:new 0 0 610 324;" xml:space="preserve">
<style type="text/css">
	.st0{fill:#CE2B5A;}
	.st1{font-family:'Raleway-Regular';}
	.st2{font-size:162.8854px;}
	.st3{letter-spacing:8;}
	.st4{fill:#51B95B;}
	.st5{fill:#714E9F;}
	.st6{fill:#3B75BA;}
	.st7{fill:none;stroke:#000000;stroke-miterlimit:10;}
</style>
<text transform="matrix(1 0 0 1 6.147 266.6201)"><tspan x="0" y="0" class="st0 st1 st2 st3">G</tspan><tspan x="124.8" y="0" class="st4 st1 st2 st3">o</tspan><tspan x="229.8" y="0" class="st5 st1 st2 st3">o</tspan><tspan x="334.9" y="0" class="st6 st1 st2 st3">g</tspan><tspan x="443.7" y="0" class="st0 st1 st2 st3">l</tspan><tspan x="496.1" y="0" class="st4 st1 st2 st3">e</tspan></text>
<path class="st7" d="M280.5,209.6c0,0,0.4,81.2-4.6,87.5"/>
<path class="st7" d="M236.6,154.3c0,0,0.4,81.2-4.6,87.5"/>
<path class="st7" d="M347.5,143.6c0,0,0.4,81.2-4.6,87.5"/>
<path class="st7" d="M197,144.8c0,0,0.4,81.2-4.6,87.5"/>
<path class="st7" d="M297.6,88.5c0,0,0.4,81.2-4.6,87.5"/>
<g>
	<path class="st6" d="M295.6,88.5c0,0,0.2,3.8-1.1,4.5c0,0-1.8,2.1,1,1.6s1-1,4.1-0.1c0,0,2.8,0.3,1-1.6c-1.8-1.9-1.2-5.2-1.2-5.2
		L295.6,88.5z"/>
	<ellipse transform="matrix(0.9933 -0.1156 0.1156 0.9933 -4.6937 34.3951)" class="st6" cx="294.3" cy="57.7" rx="26" ry="31.8"/>
</g>
<g>
	<path class="st0" d="M279.2,240.4c0,0-0.6,2.1-1.5,2.2c0,0-1.4,0.8,0.2,1.1c1.6,0.3,0.8-0.4,2.2,0.8c0,0,1.4,0.7,0.9-0.6
		c-0.6-1.4,0.4-3,0.4-3L279.2,240.4z"/>
	
		<ellipse transform="matrix(0.2411 -0.9705 0.9705 0.2411 -0.8383 445.9382)" class="st0" cx="284.7" cy="223.5" rx="18.4" ry="15.1"/>
</g>
<g>
	<path class="st6" d="M235.7,182.1c0,0-0.6,2.1-1.5,2.2c0,0-1.4,0.8,0.2,1.1c1.6,0.3,0.8-0.4,2.2,0.8c0,0,1.4,0.7,0.9-0.6
		c-0.6-1.4,0.4-3,0.4-3L235.7,182.1z"/>
	
		<ellipse transform="matrix(0.2411 -0.9705 0.9705 0.2411 22.781 359.3685)" class="st6" cx="241.2" cy="165.1" rx="18.4" ry="15.1"/>
</g>
<g>
	<path class="st4" d="M346.2,167.6c0,0-1,3.6-2.4,3.8c0,0-2.2,1.4,0.3,1.8c2.6,0.4,1.2-0.6,3.6,1.3c0,0,2.3,1.2,1.4-1.1
		c-0.9-2.3,0.7-5.2,0.7-5.2L346.2,167.6z"/>
	
		<ellipse transform="matrix(0.2324 -0.9726 0.9726 0.2324 137.8063 451.9298)" class="st4" cx="355.2" cy="138.7" rx="31.3" ry="23.9"/>
</g>
<g>
	<path class="st0" d="M195.5,144.1c0,0-0.2,2.6-1.2,3c0,0-1.6,1.3,0.6,1.2c2.2-0.1,0.9-0.6,3.2,0.3c0,0,2.1,0.4,0.9-1
		c-1.2-1.4-0.5-3.6-0.5-3.6L195.5,144.1z"/>
	<ellipse class="st0" cx="197.2" cy="122.9" rx="20" ry="21.9"/>
</g>
<path class="st7" d="M94.8,115.8c0,0,0.4,81.2-4.6,87.5"/>
<g>
	<path class="st5" d="M92.3,140.6c0,0,0.4,3.4-0.7,4.1c0,0-1.5,2,1,1.4s0.9-1,3.8-0.3c0,0,2.6,0.1,0.9-1.5c-1.7-1.6-1.4-4.6-1.4-4.6
		L92.3,140.6z"/>
	<ellipse transform="matrix(0.9848 -0.1739 0.1739 0.9848 -18.2133 17.2683)" class="st5" cx="89.5" cy="112.6" rx="24" ry="29"/>
</g>
<path class="st7" d="M152.3,53c0,0,0.4,81.2-4.6,87.5"/>
<g>
	<path class="st4" d="M150.5,82.3c0,0,0.4,2.2-0.3,2.7c0,0-0.9,1.3,0.7,0.8c1.6-0.5,0.5-0.7,2.4-0.4c0,0,1.6,0,0.5-1
		c-1.2-0.9-1.1-2.9-1.1-2.9L150.5,82.3z"/>
	
		<ellipse transform="matrix(0.9686 -0.2487 0.2487 0.9686 -11.4754 38.6752)" class="st4" cx="147.3" cy="64.8" rx="15.1" ry="18.4"/>
</g>
<path class="st7" d="M409.9,50.9c0,0,0.4,81.2-4.6,87.5"/>
<g>
	<path class="st0" d="M408.9,84c0,0-0.1,2.2-0.9,2.5c0,0-1.2,1.1,0.5,1c1.6-0.1,0.7-0.5,2.4,0.2c0,0,1.6,0.4,0.7-0.8
		c-0.9-1.2-0.4-3.1-0.4-3.1L408.9,84z"/>
	<ellipse class="st0" cx="410.2" cy="66.2" rx="15.1" ry="18.4"/>
</g>
<path class="st7" d="M500.3,167.6c0,0,0.4,81.2-4.6,87.5"/>
<g>
	<path class="st5" d="M498.9,201.7c0,0,0.1,2.2-0.6,2.6c0,0-1,1.2,0.6,0.9s0.6-0.6,2.4,0c0,0,1.6,0.2,0.6-0.9s-0.7-3-0.7-3
		L498.9,201.7z"/>
	
		<ellipse transform="matrix(0.9933 -0.1156 0.1156 0.9933 -17.9192 58.8066)" class="st5" cx="498.2" cy="183.9" rx="15.1" ry="18.4"/>
</g>
<path class="st7" d="M521.5,102.6c0,0,0.4,81.2-4.6,87.5"/>
<g>
	<path class="st6" d="M521,137.1c0,0-1,3.3-2.4,3.5c0,0-2.2,1.2,0.3,1.7s1.2-0.6,3.6,1.3c0,0,2.3,1.2,1.4-1
		c-0.9-2.2,0.6-4.8,0.6-4.8L521,137.1z"/>
	
		<ellipse transform="matrix(0.2411 -0.9705 0.9705 0.2411 295.0556 597.7345)" class="st6" cx="529.7" cy="110.2" rx="29.2" ry="23.9"/>
</g>
</svg>
