<?xml version="1.0" encoding="utf-8"?>
<!-- Generator: Adobe Illustrator 21.0.2, SVG Export Plug-In . SVG Version: 6.00 Build 0)  -->
<svg version="1.1" id="Layer_1" xmlns="http://www.w3.org/2000/svg" xmlns:xlink="http://www.w3.org/1999/xlink" x="0px" y="0px"
	 viewBox="0 0 610 324" style="enable-background:new 0 0 610 324;" xml:space="preserve">
<style type="text/css">
	.st0{fill:#95D7F4;}
	.st1{fill:#FFFFFF;stroke:#DFF0F7;stroke-miterlimit:10;}
	.st2{fill:#FFFFFF;}
	.st3{fill:#6C797F;}
	.st4{opacity:0.79;fill:#F4EB27;}
</style>
<rect x="-20.5" y="-10.5" class="st0" width="651" height="345"/>
<path class="st1" d="M52,60c0,0-16-33,22-29c0,0,17-31,39-10c0,0,20-8,31,0c0,0,32-12,36,21c0,0,14,19-12,30c0,0-31,13-37,0
	c0,0-17,19.6-36,5.8C95,77.8,47,98,52,60z"/>
<path class="st1" d="M430.2,110.9c0,0-1.8-42.3,39.8-25.3c0,0,18.4-27.9,41-4.1c0,0,23.9-15.1,34.1,3.4c0,0,26.6-8.2,28,10.2
	c0,0,19.8,21.8-8.2,28.7c0,0-13.7,15.7-28.7,3.4c0,0-16,18.3-31.2,4.7c0,0-23.4,12.4-28.2-4.7c0,0-20.5,17.1-30.7,0
	C446.1,127.3,425.6,130.4,430.2,110.9z"/>
<path class="st1" d="M425.2,35.6c0,0-1.2-28.7,27-17.1c0,0,12.5-18.9,27.7-2.7c0,0,16.2-10.2,23.1,2.3c0,0,18-5.5,19,6.9
	c0,0,13.4,14.8-5.5,19.4c0,0-9.2,10.6-19.4,2.3c0,0-10.8,12.4-21.1,3.2c0,0-15.9,8.4-19.1-3.2c0,0-13.9,11.6-20.8,0
	C436,46.7,422.1,48.8,425.2,35.6z"/>
<path class="st1" d="M245.5,62.3c0,0-1.5-33.8,31.8-20.2c0,0,14.7-22.3,32.7-3.2c0,0,19.1-12,27.3,2.7c0,0,21.3-6.5,22.3,8.2
	c0,0,15.8,17.4-6.5,22.9c0,0-10.9,12.5-22.9,2.7c0,0-12.7,14.6-24.9,3.8c0,0-18.7,9.9-22.5-3.8c0,0-16.4,13.6-24.5,0
	C258.2,75.4,241.9,77.9,245.5,62.3z"/>
<path class="st2" d="M398.7,277.2C398.7,277.2,398.7,277.2,398.7,277.2c0.4-0.1,1-0.1,1.4-0.2C399.8,277.1,399.3,277.1,398.7,277.2z
	"/>
<path class="st2" d="M400.4,277c-0.1,0-0.2,0-0.4,0.1C400.2,277,400.3,277,400.4,277z"/>
<path class="st2" d="M400.5,276.9C400.5,276.9,400.5,276.9,400.5,276.9L400.5,276.9z"/>
<path class="st2" d="M400.1,277C400.5,276.9,400.7,276.9,400.1,277L400.1,277z"/>
<path class="st2" d="M140,131.3c0.1,0,0.3,0,0.4-0.1C140.3,131.3,140.2,131.3,140,131.3z"/>
<path class="st2" d="M140.7,131.2C140.8,131.2,140.8,131.2,140.7,131.2L140.7,131.2z"/>
<path class="st3" d="M-7,359.9c0,0,35.2-46.3,36.6-52c1.3-5.7,22.3-8,22.3-8s10-4.3,12-19.7c2-15.3,9-15.3,9-15.3s9.3-5.7,12-21.7
	c2.7-16,29.7-83,29.7-83s9.4-12.8,14.7-16.4c0.8-0.5,1.4-0.9,2-0.9c4.3-0.7-0.5,0.1-0.5,0.1s17.2-5.8,29.2,8.6l12.7,28
	c0,0,14,30,8.3,42.3c0,0,2.7,11.7,9.7,16.7c0,0,15,16.7,19.3,30c0,0,23.7,23.3,20,38c0,0-1.3,15.7,29.3,45.5l31.8,39.5l-14.1-4.3
	l-26.3,15c0,0-33.7,20-95.7,5c0,0-20.7-3.7-28-1.7c0,0-16.3-16-37.7-8.7c0,0-32.3-5-44.7-7.3C44.5,389.6,0.1,355.9-7,359.9z"/>
<path class="st3" d="M131.1,346.8c0,0,25.6-44.5,26.6-49.9c1-5.4,16.2-7.7,16.2-7.7s7.3-4.2,8.7-18.9c1.5-14.7,6.5-14.7,6.5-14.7
	s6.8-5.4,8.7-20.8c1.9-15.4,21.5-79.7,21.5-79.7s6.9-12.3,10.7-15.7c0.5-0.5,1-0.8,1.4-0.9c3.1-0.6-0.4,0.1-0.4,0.1
	s12.5-5.5,21.2,8.2l9.2,26.9c0,0,10.2,28.8,6.1,40.6c0,0,1.9,11.2,7,16c0,0,10.9,16,14,28.8c0,0,17.2,22.4,14.5,36.5
	c0,0-1,15,21.3,43.7l23.1,37.9l-10.2-4.2l-19.1,14.4c0,0-24.4,19.2-69.5,4.8c0,0-15-3.5-20.3-1.6c0,0-11.9-15.4-27.3-8.3
	c0,0-23.5-4.8-32.4-7C168.5,375.3,136.2,342.9,131.1,346.8z"/>
<path class="st2" d="M269.9,197c-1.8-3.1-3.3-6.4-4.8-9.7c-1-2.1-1.6-4.1-1.8-6.3c-2.8-2.5-3.9-6.7-3.9-6.7
	c2.9-5.6-4.3-19.2-4.3-19.2l-6.5-12.7c-6.2-6.5-15-3.9-15-3.9s0.1,0,0.3,0c-0.3,0-0.6,0.2-1,0.4c-2.7,1.7-7.6,7.4-7.6,7.4
	s-13.7,30-15.2,37.5c2.7,0,4.5,3.8,1.7,5.1c-2.3,1-3.1,4.6-4.6,6.5c-2.3,3-4,6.3-6.1,9.4c-0.5,0.8-1,1.5-1.6,2.2
	c0.3,0.7,0.3,1.6-0.3,2.4c-1,1.5-1.3,3.1-1.4,4.7c1.8-2.6,3.3-5.2,4.1-6.4c1.4-2.3,3-4.7,4.5-7c1.6-2.4,3.5-3.7,5.6-5.5
	c3.6-3.1,3.4-7.7,8.8-9.1c2.2-0.6,3.8,1,4.1,2.9c0.6,4.1-1.3,8.2-3,11.9c-1.9,4.1-3.2,8.2-4.6,12.5c-1.1,3.2-3.6,9.4-0.1,12.1
	c2,1.5,7.3,2.1,9.1,0.1c2-2.2,2.1-6.2,3.1-8.9c1.8-4.7,3.4-9.6,5.8-14.1c3.1-5.9,8.8-13,15.3-15.9c2-0.8,5.1,0.1,4.9,2.6
	c-1,8.6-2.1,17-2.1,25.7c0,2.9,0.1,5.9,0.4,8.8c0.2,1.7,0.3,6.1,2,7.2c0.5,0.3,0.1,0.4,0.9-0.3c1-0.8,1.6-2.6,2.1-3.8
	c1.1-3,1.7-6.1,2.6-9.1c2.1-6.5,5.4-12.9,12.2-15.9C272.1,200.4,270.9,198.8,269.9,197z"/>
<path class="st2" d="M203.2,235.6c-3.3-5.5-5.9-11.4-8.6-17.2c-1.7-3.7-2.9-7.4-3.2-11.2c-4.9-4.5-6.9-11.9-6.9-11.9
	c5.2-10-7.6-34.2-7.6-34.2l-11.6-22.6c-11-11.6-26.8-6.9-26.8-6.9s0.2,0,0.5-0.1c-0.5,0.1-1.1,0.3-1.8,0.8
	c-4.8,2.9-13.5,13.2-13.5,13.2s-24.4,53.4-27.1,66.8c4.8-0.1,8.1,6.8,2.9,9.1c-4.1,1.8-5.6,8.1-8.2,11.6c-4,5.3-7.1,11.2-10.8,16.7
	c-0.9,1.3-1.8,2.6-2.8,4c0.6,1.2,0.6,2.8-0.4,4.3c-1.8,2.7-2.4,5.5-2.6,8.4c3.3-4.6,5.9-9.3,7.2-11.4c2.6-4.2,5.3-8.3,8-12.4
	c2.8-4.2,6.2-6.6,10-9.8c6.4-5.5,6.1-13.7,15.7-16.2c4-1,6.8,1.8,7.3,5.1c1,7.3-2.3,14.6-5.4,21.2c-3.3,7.3-5.8,14.6-8.3,22.2
	c-1.9,5.7-6.4,16.8-0.2,21.5c3.6,2.7,13,3.7,16.2,0.1c3.5-4,3.8-11,5.6-15.8c3.2-8.3,6.1-17.2,10.3-25.1
	c5.5-10.5,15.6-23.2,27.3-28.2c3.5-1.5,9.1,0.2,8.6,4.6c-1.7,15.3-3.7,30.3-3.7,45.7c0,5.2,0.1,10.4,0.7,15.6
	c0.3,3,0.5,10.8,3.5,12.7c1,0.6,0.1,0.7,1.6-0.5c1.9-1.5,2.9-4.6,3.7-6.7c1.9-5.3,3-10.8,4.7-16.1c3.7-11.6,9.6-23,21.7-28.2
	C207.2,241.7,205.1,238.7,203.2,235.6z"/>
<path class="st3" d="M209.5,400.6c0,0,30.4-52.9,31.6-59.3c1.2-6.5,19.3-9.1,19.3-9.1s8.6-4.9,10.4-22.4c1.7-17.5,7.8-17.5,7.8-17.5
	s8.1-6.5,10.4-24.7c2.3-18.3,25.6-94.7,25.6-94.7s8.1-14.6,12.7-18.7c0.6-0.6,1.2-1,1.7-1.1c3.7-0.8-0.5,0.1-0.5,0.1
	s14.8-6.6,25.2,9.8l10.9,31.9c0,0,12.1,34.2,7.2,48.3c0,0,2.3,13.3,8.3,19c0,0,12.9,19,16.7,34.2c0,0,20.4,26.6,17.3,43.4
	c0,0-1.2,17.9,25.3,51.9l27.4,45.1l-12.2-4.9l-22.7,17.1c0,0-29.1,22.8-82.6,5.7c0,0-17.8-4.2-24.2-1.9c0,0-14.1-18.3-32.5-9.9
	c0,0-27.9-5.7-38.5-8.4C254,434.4,215.6,396,209.5,400.6z"/>
<path class="st2" d="M374.4,222.6c-2.2-3.7-4-7.6-5.7-11.5c-1.1-2.5-1.9-4.9-2.1-7.5c-3.3-3-4.6-8-4.6-8c3.5-6.7-5.1-22.8-5.1-22.8
	l-7.7-15.1c-7.3-7.7-17.9-4.6-17.9-4.6s0.1,0,0.3,0c-0.3,0-0.7,0.2-1.2,0.5c-3.2,2-9,8.8-9,8.8S305.1,198,303.3,207
	c3.2,0,5.4,4.6,2,6.1c-2.8,1.2-3.7,5.4-5.5,7.8c-2.7,3.6-4.7,7.5-7.2,11.2c-0.6,0.9-1.2,1.8-1.9,2.6c0.4,0.8,0.4,1.8-0.3,2.9
	c-1.2,1.8-1.6,3.7-1.7,5.6c2.2-3.1,4-6.2,4.8-7.6c1.7-2.8,3.5-5.6,5.3-8.3c1.9-2.8,4.1-4.4,6.7-6.6c4.3-3.7,4.1-9.1,10.5-10.8
	c2.7-0.7,4.5,1.2,4.9,3.4c0.7,4.9-1.6,9.7-3.6,14.2c-2.2,4.9-3.9,9.7-5.5,14.8c-1.2,3.8-4.3,11.2-0.1,14.4c2.4,1.8,8.7,2.4,10.8,0.1
	c2.4-2.7,2.5-7.4,3.7-10.5c2.1-5.6,4.1-11.5,6.9-16.8c3.7-7,10.5-15.5,18.2-18.9c2.3-1,6.1,0.1,5.8,3.1c-1.2,10.2-2.5,20.2-2.5,30.6
	c0,3.5,0.1,7,0.5,10.4c0.2,2,0.4,7.2,2.3,8.5c0.6,0.4,0.1,0.4,1.1-0.4c1.2-1,1.9-3.1,2.5-4.5c1.3-3.5,2-7.2,3.1-10.8
	c2.5-7.8,6.4-15.3,14.5-18.9C377,226.6,375.6,224.7,374.4,222.6z"/>
<path class="st3" d="M333.6,308.4c0,0,19.6-34,20.3-38.2c0.7-4.2,12.4-5.9,12.4-5.9s5.6-3.2,6.7-14.4s5-11.3,5-11.3
	s5.2-4.2,6.7-15.9c1.5-11.7,16.5-60.9,16.5-60.9s5.2-9.4,8.2-12c0.4-0.4,0.8-0.6,1.1-0.7c2.4-0.5-0.3,0.1-0.3,0.1s9.6-4.2,16.2,6.3
	l7,20.6c0,0,7.8,22,4.6,31.1c0,0,1.5,8.6,5.4,12.2c0,0,8.3,12.2,10.7,22c0,0,13.1,17.1,11.1,27.9c0,0-0.7,11.5,16.3,33.4l17.6,29
	l-7.8-3.2l-14.6,11c0,0-18.7,14.7-53.1,3.7c0,0-11.5-2.7-15.5-1.2c0,0-9.1-11.7-20.9-6.4c0,0-18-3.7-24.8-5.4
	C362.2,330.2,337.5,305.5,333.6,308.4z"/>
<path class="st2" d="M439.7,193.9c-1.4-2.4-2.5-4.9-3.7-7.4c-0.7-1.6-1.2-3.2-1.4-4.8c-2.1-1.9-3-5.1-3-5.1
	c2.2-4.3-3.3-14.7-3.3-14.7l-5-9.7c-4.7-5-11.5-3-11.5-3s0.1,0,0.2,0c-0.2,0-0.5,0.1-0.8,0.3c-2.1,1.3-5.8,5.7-5.8,5.7
	s-10.5,22.9-11.7,28.7c2.1,0,3.5,2.9,1.3,3.9c-1.8,0.8-2.4,3.5-3.5,5c-1.7,2.3-3,4.8-4.6,7.2c-0.4,0.6-0.8,1.1-1.2,1.7
	c0.2,0.5,0.2,1.2-0.2,1.9c-0.8,1.2-1,2.4-1.1,3.6c1.4-2,2.6-4,3.1-4.9c1.1-1.8,2.3-3.6,3.4-5.3c1.2-1.8,2.7-2.8,4.3-4.2
	c2.7-2.4,2.6-5.9,6.7-6.9c1.7-0.4,2.9,0.8,3.1,2.2c0.4,3.2-1,6.3-2.3,9.1c-1.4,3.1-2.5,6.3-3.6,9.5c-0.8,2.4-2.7,7.2-0.1,9.2
	c1.6,1.2,5.6,1.6,6.9,0.1c1.5-1.7,1.6-4.7,2.4-6.8c1.4-3.6,2.6-7.4,4.4-10.8c2.4-4.5,6.7-10,11.7-12.1c1.5-0.6,3.9,0.1,3.7,2
	c-0.7,6.6-1.6,13-1.6,19.7c0,2.2,0.1,4.5,0.3,6.7c0.1,1.3,0.2,4.7,1.5,5.5c0.4,0.3,0,0.3,0.7-0.2c0.8-0.6,1.3-2,1.6-2.9
	c0.8-2.3,1.3-4.6,2-6.9c1.6-5,4.1-9.9,9.3-12.1C441.4,196.5,440.5,195.2,439.7,193.9z"/>
<path class="st1" d="M434.8,225.1c0,0-16-33,22-29c0,0,17-31,39-10c0,0,20-8,31,0c0,0,32-12,36,21c0,0,14,19-12,30c0,0-31,13-37,0
	c0,0-17,19.6-36,5.8C477.8,242.9,429.8,263.1,434.8,225.1z"/>
<path class="st1" d="M27.2,146.3c0,0-1.3-29.4,27.6-17.5c0,0,12.8-19.4,28.4-2.8c0,0,16.6-10.5,23.7,2.3c0,0,18.5-5.7,19.4,7.1
	c0,0,13.7,15.2-5.7,19.9c0,0-9.5,10.9-19.9,2.4c0,0-11.1,12.7-21.7,3.3c0,0-16.3,8.6-19.6-3.3c0,0-14.2,11.8-21.3,0
	C38.2,157.7,24,159.9,27.2,146.3z"/>
<path class="st1" d="M253.3,140.6c0,0-12.9-26.6,17.7-23.4c0,0,13.7-25,31.4-8.1c0,0,16.1-6.4,25,0c0,0,25.8-9.7,29,16.9
	c0,0,11.3,15.3-9.7,24.2c0,0-25,10.5-29.8,0c0,0-13.7,15.7-29,4.7C287.9,154.9,249.3,171.2,253.3,140.6z"/>
<circle class="st4" cx="566.6" cy="37" r="23.7"/>
</svg>
