<?xml version="1.0" encoding="utf-8"?>
<!-- Generator: Adobe Illustrator 21.0.2, SVG Export Plug-In . SVG Version: 6.00 Build 0)  -->
<svg version="1.1" id="Layer_1" xmlns="http://www.w3.org/2000/svg" xmlns:xlink="http://www.w3.org/1999/xlink" x="0px" y="0px"
	 viewBox="0 0 610 324" style="enable-background:new 0 0 610 324;" xml:space="preserve">
<style type="text/css">
	.st0{fill:#352C2E;}
	.st1{fill:#FFFFFF;}
</style>
<rect x="-29.1" y="-37.2" class="st0" width="668.1" height="383.1"/>
<circle class="st1" cx="56.6" cy="62.3" r="1.6"/>
<circle class="st1" cx="194.3" cy="229.9" r="1.6"/>
<circle class="st1" cx="291.5" cy="113" r="1.6"/>
<circle class="st1" cx="361.1" cy="171.5" r="1.6"/>
<circle class="st1" cx="112.6" cy="195.1" r="1.6"/>
<circle class="st1" cx="197.5" cy="96.1" r="1.6"/>
<circle class="st1" cx="105.6" cy="242.4" r="1.6"/>
<circle class="st1" cx="233.9" cy="138.5" r="1.6"/>
<circle class="st1" cx="235.5" cy="34.3" r="1.6"/>
<circle class="st1" cx="114.2" cy="31.1" r="1.6"/>
<circle class="st1" cx="55" cy="121" r="1.6"/>
<circle class="st1" cx="34.8" cy="198.3" r="1.6"/>
<circle class="st1" cx="152.5" cy="59.1" r="1.6"/>
<circle class="st1" cx="275.5" cy="65.5" r="1.6"/>
<circle class="st1" cx="36.4" cy="29.5" r="1.6"/>
<circle class="st1" cx="112.6" cy="135.3" r="1.6"/>
<circle class="st1" cx="273.9" cy="186.4" r="1.6"/>
<circle class="st1" cx="30" cy="91.3" r="1.6"/>
<circle class="st1" cx="23.5" cy="146.3" r="1.6"/>
<circle class="st1" cx="245.5" cy="104.1" r="1.6"/>
<circle class="st1" cx="162" cy="102.5" r="1.6"/>
<circle class="st1" cx="162" cy="168.3" r="1.6"/>
<circle class="st1" cx="91" cy="149.5" r="1.6"/>
<circle class="st1" cx="38" cy="254.2" r="1.6"/>
<circle class="st1" cx="187.5" cy="32.7" r="1.6"/>
<circle class="st1" cx="222.1" cy="173.1" r="1.6"/>
<circle class="st1" cx="105.6" cy="88.1" r="1.6"/>
<circle class="st1" cx="435.9" cy="25.5" r="1.6"/>
<circle class="st1" cx="410" cy="162" r="1.6"/>
<circle class="st1" cx="506.4" cy="204.5" r="1.6"/>
<circle class="st1" cx="580.7" cy="188" r="1.6"/>
<circle class="st1" cx="222.1" cy="204.6" r="1.6"/>
<circle class="st1" cx="527" cy="73" r="1.6"/>
<circle class="st1" cx="374.5" cy="91.3" r="1.6"/>
<circle class="st1" cx="429" cy="99.3" r="1.6"/>
<circle class="st1" cx="468.5" cy="57.5" r="1.6"/>
<circle class="st1" cx="358.1" cy="34.3" r="1.6"/>
<circle class="st1" cx="374.5" cy="133.7" r="1.6"/>
<circle class="st1" cx="492" cy="100.9" r="1.6"/>
<circle class="st1" cx="331.4" cy="84.9" r="1.6"/>
<circle class="st1" cx="462.4" cy="147.9" r="1.6"/>
<circle class="st1" cx="408.4" cy="209.4" r="1.6"/>
<circle class="st1" cx="411.6" cy="51.5" r="1.6"/>
<circle class="st1" cx="506.4" cy="23.9" r="1.6"/>
<circle class="st1" cx="306.6" cy="25.5" r="1.6"/>
<circle class="st1" cx="466.9" cy="184.8" r="1.6"/>
<circle class="st1" cx="331.4" cy="196.7" r="1.6"/>
<circle class="st1" cx="266" cy="9.5" r="1.6"/>
<circle class="st1" cx="218.9" cy="65.5" r="1.6"/>
<circle class="st1" cx="160.4" cy="18.4" r="1.6"/>
<circle class="st1" cx="173.3" cy="136.9" r="1.6"/>
<circle class="st1" cx="284" cy="228.3" r="1.6"/>
<circle class="st1" cx="222.1" cy="311.1" r="1.6"/>
<circle class="st1" cx="277.1" cy="147.9" r="1.6"/>
<circle class="st1" cx="569.4" cy="37.5" r="1.6"/>
<circle class="st1" cx="508" cy="152.7" r="1.6"/>
<circle class="st1" cx="455.9" cy="307.9" r="1.6"/>
<circle class="st1" cx="160.4" cy="271" r="1.6"/>
<circle class="st1" cx="253" cy="282.1" r="1.6"/>
<circle class="st1" cx="523.8" cy="254.2" r="1.6"/>
<circle class="st1" cx="430.6" cy="280.5" r="1.6"/>
<circle class="st1" cx="538.6" cy="298" r="1.6"/>
<circle class="st1" cx="571" cy="250.4" r="1.6"/>
<circle class="st1" cx="359.5" cy="299.6" r="1.6"/>
<circle class="st1" cx="182.5" cy="287.4" r="1.6"/>
<circle class="st1" cx="294.7" cy="289" r="1.6"/>
<circle class="st1" cx="466.9" cy="225.1" r="1.6"/>
<circle class="st1" cx="398.6" cy="261.5" r="1.6"/>
<circle class="st1" cx="163.6" cy="215.6" r="1.6"/>
<circle class="st1" cx="237.1" cy="244" r="1.6"/>
<circle class="st1" cx="340.8" cy="240.8" r="1.6"/>
<circle class="st1" cx="572.6" cy="122.6" r="1.6"/>
<circle class="st1" cx="115.8" cy="296.4" r="1.6"/>
<circle class="st1" cx="468.5" cy="251" r="1.6"/>
<circle class="st1" cx="313.6" cy="144.7" r="1.6"/>
<circle class="st1" cx="313.6" cy="184.3" r="1.6"/>
<circle class="st1" cx="313.6" cy="184.3" r="1.6"/>
<circle class="st1" cx="58.2" cy="303.1" r="1.6"/>
<circle class="st1" cx="73" cy="206.2" r="1.6"/>
<circle class="st1" cx="158.8" cy="304.7" r="1.6"/>
<circle class="st1" cx="313.6" cy="245.6" r="1.6"/>
</svg>
