<?xml version="1.0" encoding="utf-8"?>
<!-- Generator: Adobe Illustrator 21.0.2, SVG Export Plug-In . SVG Version: 6.00 Build 0)  -->
<svg version="1.1" id="Layer_1" xmlns="http://www.w3.org/2000/svg" xmlns:xlink="http://www.w3.org/1999/xlink" x="0px" y="0px"
	 viewBox="0 0 610 324" style="enable-background:new 0 0 610 324;" xml:space="preserve">
<style type="text/css">
	.st0{fill:#95D7F4;}
	.st1{fill:#FFFFFF;stroke:#DFF0F7;stroke-miterlimit:10;}
	.st2{fill:#F2690C;}
	.st3{fill:#EAEA11;}
	.st4{fill:none;stroke:#231F20;stroke-width:2;stroke-miterlimit:10;}
</style>
<rect x="-22.7" y="-13" class="st0" width="651" height="345"/>
<path class="st1" d="M128.8,68.7c0,0-17.3-42.1,36.6-30.4c0,0,22.1-33.9,47-5.5c0,0,25.6-18,31.8,4.1c0,0,32.5,11.1,18.7,25.6
	c0,0,3.5,30.4-22.8,27.7c0,0-11.1,21.4-37.3,6.2c0,0-10.4,15.7-36.6,5.5c0,0-26.3,6.3-22.1-13.1C144,88.8,110.1,91.5,128.8,68.7z"/>
<path class="st1" d="M372.1,165c0,0-46.8-26.6,4.3-39.9c0,0,7.9-27.7,33.8-7.6c0,0,18-23.8,33.8,2.2c0,0,26.6,2.3,17.3,16.6
	c0,0,17.3,25.1-5,23c0,0-12.2,18.7-24.5,5.8c0,0-12.2,13.5-28.1,4.6C403.8,169.6,377.1,187.3,372.1,165z"/>
<path class="st1" d="M304.2,43.4c0,0-3.1-13.7,11.2-10.9c0,0,5.1-12,14-4c0,0,12.5-10.6,22-0.6c0,0,9.2-10,19.5,2.9
	c0,0,14-7.2,18.9,2.7c0,0,15.4-5.6,17.2,9.9c0,0,19.5,8,8.9,14.9c0,0-0.9,13.2-12.9,7.2c0,0-6,7.1-14,1.6c0,0-12.1,11-21.1-1
	c0,0-11.1,9.4-16.5-0.3c0,0-7.6,10-13.4-0.3c0,0-10.9,4.6-13.7-2.6c0,0-7.7,6.3-14.3-0.3c0,0-11.7,3.8-11.4-6.6
	C298.5,56.1,287.9,44.9,304.2,43.4z"/>
<path class="st1" d="M445.3,69.7c0,0-19.5-49.8,41.2-35.9c0,0,24.9-40.1,52.9-6.5c0,0,28.8-21.3,35.8,4.9c0,0,36.6,13.1,21,30.3
	c0,0,3.9,36-25.7,32.7c0,0-12.4,25.4-42,7.4c0,0-11.7,18.6-41.2,6.5c0,0-29.6,7.5-24.9-15.5C462.4,93.5,424.3,96.7,445.3,69.7z"/>
<path class="st1" d="M49.1,141.3c0,0-10-25.6,25.6-21.4c0,0,12.8-32.3,39.9-0.5c0,0,22.8-9.5,28.5,10.5c0,0,15.7,21.4,0,28.5
	c0,0-24.2,28.5-28.5,0c0,0-31.3,24.2-28.5-4.3C86.1,154.1,39.1,171.2,49.1,141.3z"/>
<path class="st1" d="M216.7,162.5c0,0-9.9-25.6,25.6-21.3c0,0,12.8-32.2,39.8-0.5c0,0,22.7-9.5,28.4,10.4c0,0,15.6,21.3,0,28.4
	c0,0-24.1,28.4-28.4,0c0,0-31.3,24.1-28.4-4.3C253.6,175.3,206.7,192.4,216.7,162.5z"/>
<path class="st1" d="M407.9,260.7c0,0-4.8-20.8,16.9-16.5c0,0,7.8-18.2,21.3-6.1c0,0,18.9-16.1,33.3-0.9c0,0,14-15.2,29.6,4.3
	c0,0,21.3-10.9,28.7,4.1c0,0,23.4-8.5,26,15c0,0,29.5,12.2,13.5,22.6c0,0-1.3,20-19.5,10.9c0,0-9.1,10.8-21.3,2.4
	c0,0-18.3,16.7-32-1.5c0,0-16.8,14.3-25-0.4c0,0-11.6,15.2-20.3-0.4c0,0-16.5,6.9-20.9-3.9c0,0-11.7,9.6-21.7-0.4
	c0,0-17.8,5.7-17.4-9.9C399.2,279.8,383.1,262.8,407.9,260.7z"/>
<circle class="st2" cx="302.8" cy="361.8" r="134.8"/>
<circle class="st3" cx="303.7" cy="361.8" r="102.9"/>
<path class="st1" d="M481.7,189.1c0,0-14.1-34.4,29.9-24.8c0,0,18.1-27.7,38.4-4.5c0,0,20.9-14.7,26,3.4c0,0,26.5,9,15.2,20.9
	c0,0,2.8,24.8-18.6,22.6c0,0-9,17.5-30.5,5.1c0,0-8.5,12.9-29.9,4.5c0,0-21.5,5.1-18.1-10.7C494.1,205.5,466.4,207.7,481.7,189.1z"
	/>
<path class="st1" d="M41,253.2c0,0-16.5-42.4,35.1-30.6c0,0,21.2-34.1,45-5.6c0,0,24.5-18.1,30.4,4.2c0,0,31.1,11.1,17.9,25.7
	c0,0,3.3,30.6-21.8,27.8c0,0-10.6,21.6-35.7,6.3c0,0-9.9,15.8-35.1,5.5c0,0-25.1,6.3-21.2-13.1C55.6,273.4,23.2,276.1,41,253.2z"/>
<path class="st4" d="M85,65.9c0,0,23.2-10.7,41.6,1.4c0,0,4.2-21.7,23.5-24.5"/>
<path class="st1" d="M28,49.8c0,0-7-18,18-15c0,0,9-22.7,28-0.3c0,0,16-6.7,20,7.3c0,0,11,15,0,20c0,0-17,20-20,0c0,0-22,17-20-3
	C54,58.8,21,70.8,28,49.8z"/>
<path class="st4" d="M347.4,185.2c0,0,15.8-7.3,28.3,0.9c0,0,2.9-14.8,16-16.7"/>
<path class="st4" d="M391.7,74.3c0,0,23.2-10.7,41.6,1.4c0,0,4.2-21.7,23.5-24.5"/>
<path class="st4" d="M253.7,128.8c0,0,12.3-5.7,22.1,0.7c0,0,2.3-11.5,12.5-13"/>
</svg>
